<svg xmlns:dc="http://purl.org/dc/elements/1.1/" xmlns:cc="http://creativecommons.org/ns#" xmlns:rdf="http://www.w3.org/1999/02/22-rdf-syntax-ns#" xmlns:svg="http://www.w3.org/2000/svg" xmlns="http://www.w3.org/2000/svg" viewBox="0 0 20 20" shape-rendering="crispEdges"><metadata><rdf:RDF><cc:Work><dc:format>image/svg+xml</dc:format><dc:type rdf:resource="http://purl.org/dc/dcmitype/StillImage"/><dc:title>Female / 8biticon</dc:title><dc:creator><cc:Agent><dc:title>Plastic Jam</dc:title></cc:Agent></dc:creator><dc:source>https://github.com/dicebear/dicebear</dc:source><cc:license rdf:resource="https://github.com/dicebear/dicebear/blob/v4/packages/avatars-female-sprites/LICENSE"/><dc:contributor><cc:Agent><dc:title>Florian Körner</dc:title></cc:Agent></dc:contributor></cc:Work></rdf:RDF></metadata><rect fill="transparent" width="20" height="20" x="0" y="0"/><path d="M3 20v-3h1v-1h4v-2H6v-1H5v-1H4v-1H3V9H2V7h1V4h1V3h1V2h10v1h1v1h1v3h1v2h-1v2h-1v1h-1v1h-1v1h-2v2h4v1h1v3H3z" fill="#A26D3D"/><path d="M14 14v-1h1v-1h1v-1h1V9h1V7h-1V4h-1V3h-1V2H5v1H4v1H3v3H2v2h1v2h1v1h1v1h1v1h8z" fill="#FFF" fill-opacity=".1"/><path d="M5 8h2v1H5V8zm7 0h2v1h-2V8z" fill="#FFF"/><path d="M7 8h1v1H7V8zm7 0h1v1h-1V8z" fill="#697b94"/><path d="M7 5v1H5v1H4V6h1V5h2zm7 0v1h-2v1h-1V6h1V5h2z" fill-rule="evenodd" fill="#120e11"/><path d="M2 9v1h1V9H2zm15 0v1h1V9h-1z" fill-rule="evenodd" fill="#daa520"/><path d="M9 11v2h2v-1h-1v-1H9z" fill="#c98276"/><path d="M11 13v-1h-1v-1H9v1h1v1h1z" fill="#FFF" fill-opacity=".2"/><path d="M3 8V7h1V6h2v1h1V6h2v1h2V6h2v1h1V6h2v1h1v1h-1v1h-1v1h-1v1h-1v-1h-1V9h-1V8H9v1H8v1H7v1H6v-1H5V9H4V8H3z" fill="#43677d"/><path d="M3 7v1h1V7h1V6H4v1H3zm5-1v1h1v1h2V7h1V6h-1v1H9V6H8zm7 0v1h1v1h1V7h-1V6h-1z" fill-rule="evenodd" fill="#FFF" fill-opacity=".2"/><path d="M3 20v-3h1v-1h5v1h2v-1h5v1h1v3H3z" fill="#ffc425"/><path d="M3 20v-2h1v1h3v1H3zm14 0v-2h-1v1h-3v1h4z" fill-rule="evenodd" fill="#FFF" fill-opacity=".4"/><path d="M7 16H4v1H3v1h1v1h3v1h6v-1h3v-1h1v-1h-1v-1h-3v1H7v-1z" fill="#FFF" fill-opacity=".2"/><path d="M2 9v6h2v-4H3V9H2zm0-2h2V4h12v3h2V3h-1V2H3v1H2v4zm15 2h1v6h-2v-4h1V9z" fill-rule="evenodd" fill="#2c222b"/></svg>