<svg xmlns:dc="http://purl.org/dc/elements/1.1/" xmlns:cc="http://creativecommons.org/ns#" xmlns:rdf="http://www.w3.org/1999/02/22-rdf-syntax-ns#" xmlns:svg="http://www.w3.org/2000/svg" xmlns="http://www.w3.org/2000/svg" viewBox="0 0 20 20" shape-rendering="crispEdges"><metadata><rdf:RDF><cc:Work><dc:format>image/svg+xml</dc:format><dc:type rdf:resource="http://purl.org/dc/dcmitype/StillImage"/><dc:title>Male / 8biticon</dc:title><dc:creator><cc:Agent><dc:title>Plastic Jam</dc:title></cc:Agent></dc:creator><dc:source>https://github.com/dicebear/dicebear</dc:source><cc:license rdf:resource="https://github.com/dicebear/dicebear/blob/v4/packages/avatars-male-sprites/LICENSE"/><dc:contributor><cc:Agent><dc:title>Florian Körner</dc:title></cc:Agent></dc:contributor></cc:Work></rdf:RDF></metadata><rect fill="transparent" width="20" height="20" x="0" y="0"/><path d="M8 15v1H4v1H3v3h14v-3h-1v-1h-4v-1h3v-1h1v-1h1v-3h1V7h-1V4h-1V3h-1V2H5v1H4v1H3v3H2v3h1v3h1v1h1v1h3z" fill="#8D5524"/><path d="M5 15v-1H4v-1H3v-3H2V7h1V4h1V3h1V2h10v1h1v1h1v3h1v3h-1v3h-1v1h-1v1H5z" fill="#FFF" fill-opacity=".1"/><path d="M6 8h1v1H6V8zm7 0h1v1h-1V8z" fill="#FFF"/><path d="M7 8h1v1H7V8zm5 0h1v1h-1V8z" fill="#5b7c8b"/><path d="M8 4v1H7v1H5V5h2V4h1zm4 0h1v1h2v1h-2V5h-1V4z" fill-rule="evenodd" fill="#7a4833"/><path d="M3 10v3h1v1h1v1h10v-1h1v-1h1v-3h-3v1H6v-1H3z" id="Path" fill="#7a4833" fill-opacity="0.75"/><path d="M8 13h4v1H8v-1z" fill="#d29985"/><path d="M4 8H3V7h1V6h5v1h2V6h5v1h1v1h-1v2h-5V8H9v2H4V8zm1 0V7h3v2H5V8zm7-1v2h3V7h-3z" fill-rule="evenodd" fill="#323232"/><path d="M5 7h3v2H5V7zm7 0h3v2h-3V7z" fill-rule="evenodd" fill="#FFF" fill-opacity=".2"/><path d="M14 7h1v1h-1V7zM7 7h1v1H7V7z" fill-rule="evenodd" fill="#FFF" fill-opacity=".2"/><path d="M3 8V7h1v1H3zm6-1v1h2V7H9zm7 0v1h1V7h-1z" fill-rule="evenodd" fill="#FFF" fill-opacity=".2"/><path d="M3 20v-3h1v-1h3v2h6v-2h3v1h1v3H3z" fill="#5cb85c"/><path d="M5 16H4v1H3v3h2v-4zm1 0h1v2h6v-2h1v4H6v-4zm9 0h1v1h1v3h-2v-4z" fill-rule="evenodd" fill="#FFF" fill-opacity=".2"/><path d="M9 0v1H8v1h4V1h-1V0H9z" fill="#b86b4d"/></svg>