<svg xmlns:dc="http://purl.org/dc/elements/1.1/" xmlns:cc="http://creativecommons.org/ns#" xmlns:rdf="http://www.w3.org/1999/02/22-rdf-syntax-ns#" xmlns:svg="http://www.w3.org/2000/svg" xmlns="http://www.w3.org/2000/svg" viewBox="0 0 20 20" shape-rendering="crispEdges"><metadata><rdf:RDF><cc:Work><dc:format>image/svg+xml</dc:format><dc:type rdf:resource="http://purl.org/dc/dcmitype/StillImage"/><dc:title>Male / 8biticon</dc:title><dc:creator><cc:Agent><dc:title>Plastic Jam</dc:title></cc:Agent></dc:creator><dc:source>https://github.com/dicebear/dicebear</dc:source><cc:license rdf:resource="https://github.com/dicebear/dicebear/blob/v4/packages/avatars-male-sprites/LICENSE"/><dc:contributor><cc:Agent><dc:title>Florian Körner</dc:title></cc:Agent></dc:contributor></cc:Work></rdf:RDF></metadata><rect fill="transparent" width="20" height="20" x="0" y="0"/><path d="M8 15v1H4v1H3v3h14v-3h-1v-1h-4v-1h3v-1h1v-1h1v-3h1V7h-1V4h-1V3h-1V2H5v1H4v1H3v3H2v3h1v3h1v1h1v1h3z" fill="#E0B687"/><path d="M5 15v-1H4v-1H3v-3H2V7h1V4h1V3h1V2h10v1h1v1h1v3h1v3h-1v3h-1v1h-1v1H5z" fill="#FFF" fill-opacity=".1"/><path d="M5 9V7h3v2H5zm7-2h3v2h-3V7z" fill="#FFF"/><path d="M7 8v1h1V8H7zm7 0h1v1h-1V8z" fill="#5b7c8b"/><path d="M12 7V6h1V5h1v1h1v1h-1V6h-1v1h-1zM5 7V6h1V5h1v1h1v1H7V6H6v1H5z" fill-rule="evenodd" fill="#211b14"/><path d="M3 11v2h1v1h1v1h10v-1h1v-1h1v-2H3z" id="Path" fill="#3b3024" fill-opacity="0.75"/><path d="M8 13h3v1H8v-1z" fill="#c79c89"/><path d="M4 8H3V7h1V6h5v1h2V6h5v1h1v1h-1v2h-5V8H9v2H4V8zm1 0V7h3v2H5V8zm7-1v2h3V7h-3z" fill-rule="evenodd" fill="#191919"/><path d="M5 7h3v2H5V7zm7 0h3v2h-3V7z" fill-rule="evenodd" fill="#FFF" fill-opacity=".2"/><path d="M14 7h1v1h-1V7zM7 7h1v1H7V7z" fill-rule="evenodd" fill="#FFF" fill-opacity=".2"/><path d="M3 8V7h1v1H3zm6-1v1h2V7H9zm7 0v1h1V7h-1z" fill-rule="evenodd" fill="#FFF" fill-opacity=".2"/><path d="M3 20v-3h1v-1h4v1h4v-1h4v1h1v3H3z" fill="#005b96"/><path d="M3 19h14v1H3v-1zm0-2h14v1H3v-1z" fill-rule="evenodd" fill="#FFF" fill-opacity=".2"/><path d="M3 3v2h1V4h1V3h10v1h1v1h1V3h-1V2H4v1H3z" fill="#3b3024"/></svg>